solid 
   facet normal 0.000000e+000 0.000000e+000 1.000000e+000
      outer loop
         vertex 7.608452e+000 -2.472136e+000 7.000000e+000
         vertex 8.000000e+000 0.000000e+000 7.000000e+000
         vertex 6.500000e+000 0.000000e+000 7.000000e+000
      endloop
   endfacet
   facet normal 0.000000e+000 0.000000e+000 1.000000e+000
      outer loop
         vertex 7.608452e+000 2.472136e+000 7.000000e+000
         vertex 6.472136e+000 4.702282e+000 7.000000e+000
         vertex 6.108002e+000 2.223131e+000 7.000000e+000
      endloop
   endfacet
   facet normal 0.000000e+000 0.000000e+000 1.000000e+000
      outer loop
         vertex 4.702282e+000 6.472136e+000 7.000000e+000
         vertex 2.472136e+000 7.608452e+000 7.000000e+000
         vertex 3.250000e+000 5.629165e+000 7.000000e+000
      endloop
   endfacet
   facet normal -0.000000e+000 0.000000e+000 1.000000e+000
      outer loop
         vertex 4.898587e-016 8.000000e+000 7.000000e+000
         vertex -2.472136e+000 7.608452e+000 7.000000e+000
         vertex -1.128713e+000 6.401250e+000 7.000000e+000
      endloop
   endfacet
   facet normal -0.000000e+000 0.000000e+000 1.000000e+000
      outer loop
         vertex -4.702282e+000 6.472136e+000 7.000000e+000
         vertex -6.472136e+000 4.702282e+000 7.000000e+000
         vertex -4.979289e+000 4.178120e+000 7.000000e+000
      endloop
   endfacet
   facet normal -0.000000e+000 0.000000e+000 1.000000e+000
      outer loop
         vertex -7.608452e+000 2.472136e+000 7.000000e+000
         vertex -8.000000e+000 9.797175e-016 7.000000e+000
         vertex -6.500000e+000 7.960204e-016 7.000000e+000
      endloop
   endfacet
   facet normal 0.000000e+000 -0.000000e+000 1.000000e+000
      outer loop
         vertex -7.608452e+000 -2.472136e+000 7.000000e+000
         vertex -6.472136e+000 -4.702282e+000 7.000000e+000
         vertex -6.108002e+000 -2.223131e+000 7.000000e+000
      endloop
   endfacet
   facet normal 0.000000e+000 0.000000e+000 1.000000e+000
      outer loop
         vertex -4.702282e+000 -6.472136e+000 7.000000e+000
         vertex -2.472136e+000 -7.608452e+000 7.000000e+000
         vertex -3.250000e+000 -5.629165e+000 7.000000e+000
      endloop
   endfacet
   facet normal 0.000000e+000 0.000000e+000 1.000000e+000
      outer loop
         vertex -1.469576e-015 -8.000000e+000 7.000000e+000
         vertex 2.472136e+000 -7.608452e+000 7.000000e+000
         vertex 1.128713e+000 -6.401250e+000 7.000000e+000
      endloop
   endfacet
   facet normal 0.000000e+000 0.000000e+000 1.000000e+000
      outer loop
         vertex 4.702282e+000 -6.472136e+000 7.000000e+000
         vertex 6.472136e+000 -4.702282e+000 7.000000e+000
         vertex 4.979289e+000 -4.178120e+000 7.000000e+000
      endloop
   endfacet
   facet normal 0.000000e+000 -0.000000e+000 1.000000e+000
      outer loop
         vertex 6.108002e+000 2.223131e+000 7.000000e+000
         vertex 6.500000e+000 0.000000e+000 7.000000e+000
         vertex 7.608452e+000 2.472136e+000 7.000000e+000
      endloop
   endfacet
   facet normal -0.000000e+000 0.000000e+000 1.000000e+000
      outer loop
         vertex 6.108002e+000 -2.223131e+000 7.000000e+000
         vertex 4.979289e+000 -4.178120e+000 7.000000e+000
         vertex 6.472136e+000 -4.702282e+000 7.000000e+000
      endloop
   endfacet
   facet normal -0.000000e+000 0.000000e+000 1.000000e+000
      outer loop
         vertex 3.250000e+000 -5.629165e+000 7.000000e+000
         vertex 1.128713e+000 -6.401250e+000 7.000000e+000
         vertex 2.472136e+000 -7.608452e+000 7.000000e+000
      endloop
   endfacet
   facet normal 0.000000e+000 0.000000e+000 1.000000e+000
      outer loop
         vertex -1.128713e+000 -6.401250e+000 7.000000e+000
         vertex -3.250000e+000 -5.629165e+000 7.000000e+000
         vertex -2.472136e+000 -7.608452e+000 7.000000e+000
      endloop
   endfacet
   facet normal 0.000000e+000 0.000000e+000 1.000000e+000
      outer loop
         vertex -4.979289e+000 -4.178120e+000 7.000000e+000
         vertex -6.108002e+000 -2.223131e+000 7.000000e+000
         vertex -6.472136e+000 -4.702282e+000 7.000000e+000
      endloop
   endfacet
   facet normal 0.000000e+000 0.000000e+000 1.000000e+000
      outer loop
         vertex -6.500000e+000 7.960204e-016 7.000000e+000
         vertex -6.108002e+000 2.223131e+000 7.000000e+000
         vertex -7.608452e+000 2.472136e+000 7.000000e+000
      endloop
   endfacet
   facet normal 0.000000e+000 0.000000e+000 1.000000e+000
      outer loop
         vertex -4.979289e+000 4.178120e+000 7.000000e+000
         vertex -3.250000e+000 5.629165e+000 7.000000e+000
         vertex -4.702282e+000 6.472136e+000 7.000000e+000
      endloop
   endfacet
   facet normal 0.000000e+000 0.000000e+000 1.000000e+000
      outer loop
         vertex -1.128713e+000 6.401250e+000 7.000000e+000
         vertex 1.128713e+000 6.401250e+000 7.000000e+000
         vertex 4.898587e-016 8.000000e+000 7.000000e+000
      endloop
   endfacet
   facet normal 0.000000e+000 0.000000e+000 1.000000e+000
      outer loop
         vertex 3.250000e+000 5.629165e+000 7.000000e+000
         vertex 4.979289e+000 4.178120e+000 7.000000e+000
         vertex 4.702282e+000 6.472136e+000 7.000000e+000
      endloop
   endfacet
   facet normal 0.000000e+000 0.000000e+000 1.000000e+000
      outer loop
         vertex 7.608452e+000 -2.472136e+000 7.000000e+000
         vertex 6.500000e+000 0.000000e+000 7.000000e+000
         vertex 6.108002e+000 -2.223131e+000 7.000000e+000
      endloop
   endfacet
   facet normal 0.000000e+000 0.000000e+000 1.000000e+000
      outer loop
         vertex 3.250000e+000 5.629165e+000 7.000000e+000
         vertex 2.472136e+000 7.608452e+000 7.000000e+000
         vertex 1.128713e+000 6.401250e+000 7.000000e+000
      endloop
   endfacet
   facet normal 0.000000e+000 0.000000e+000 1.000000e+000
      outer loop
         vertex -6.500000e+000 7.960204e-016 7.000000e+000
         vertex -8.000000e+000 9.797175e-016 7.000000e+000
         vertex -7.608452e+000 -2.472136e+000 7.000000e+000
      endloop
   endfacet
   facet normal 0.000000e+000 0.000000e+000 1.000000e+000
      outer loop
         vertex -1.469576e-015 -8.000000e+000 7.000000e+000
         vertex 1.128713e+000 -6.401250e+000 7.000000e+000
         vertex -1.128713e+000 -6.401250e+000 7.000000e+000
      endloop
   endfacet
   facet normal 0.000000e+000 -0.000000e+000 1.000000e+000
      outer loop
         vertex 6.108002e+000 -2.223131e+000 7.000000e+000
         vertex 6.472136e+000 -4.702282e+000 7.000000e+000
         vertex 7.608452e+000 -2.472136e+000 7.000000e+000
      endloop
   endfacet
   facet normal -0.000000e+000 0.000000e+000 1.000000e+000
      outer loop
         vertex -4.979289e+000 -4.178120e+000 7.000000e+000
         vertex -6.472136e+000 -4.702282e+000 7.000000e+000
         vertex -4.702282e+000 -6.472136e+000 7.000000e+000
      endloop
   endfacet
   facet normal 0.000000e+000 -0.000000e+000 1.000000e+000
      outer loop
         vertex 4.898587e-016 8.000000e+000 7.000000e+000
         vertex 1.128713e+000 6.401250e+000 7.000000e+000
         vertex 2.472136e+000 7.608452e+000 7.000000e+000
      endloop
   endfacet
   facet normal 0.000000e+000 0.000000e+000 1.000000e+000
      outer loop
         vertex -1.469576e-015 -8.000000e+000 7.000000e+000
         vertex -1.128713e+000 -6.401250e+000 7.000000e+000
         vertex -2.472136e+000 -7.608452e+000 7.000000e+000
      endloop
   endfacet
   facet normal 0.000000e+000 0.000000e+000 1.000000e+000
      outer loop
         vertex 8.000000e+000 0.000000e+000 7.000000e+000
         vertex 7.608452e+000 2.472136e+000 7.000000e+000
         vertex 6.500000e+000 0.000000e+000 7.000000e+000
      endloop
   endfacet
   facet normal -0.000000e+000 0.000000e+000 1.000000e+000
      outer loop
         vertex -2.472136e+000 7.608452e+000 7.000000e+000
         vertex -4.702282e+000 6.472136e+000 7.000000e+000
         vertex -3.250000e+000 5.629165e+000 7.000000e+000
      endloop
   endfacet
   facet normal 0.000000e+000 0.000000e+000 1.000000e+000
      outer loop
         vertex 2.472136e+000 -7.608452e+000 7.000000e+000
         vertex 4.702282e+000 -6.472136e+000 7.000000e+000
         vertex 3.250000e+000 -5.629165e+000 7.000000e+000
      endloop
   endfacet
   facet normal 0.000000e+000 0.000000e+000 1.000000e+000
      outer loop
         vertex -3.250000e+000 -5.629165e+000 7.000000e+000
         vertex -4.979289e+000 -4.178120e+000 7.000000e+000
         vertex -4.702282e+000 -6.472136e+000 7.000000e+000
      endloop
   endfacet
   facet normal 0.000000e+000 0.000000e+000 1.000000e+000
      outer loop
         vertex -6.108002e+000 2.223131e+000 7.000000e+000
         vertex -4.979289e+000 4.178120e+000 7.000000e+000
         vertex -6.472136e+000 4.702282e+000 7.000000e+000
      endloop
   endfacet
   facet normal 0.000000e+000 -0.000000e+000 1.000000e+000
      outer loop
         vertex 4.979289e+000 4.178120e+000 7.000000e+000
         vertex 6.108002e+000 2.223131e+000 7.000000e+000
         vertex 6.472136e+000 4.702282e+000 7.000000e+000
      endloop
   endfacet
   facet normal 0.000000e+000 0.000000e+000 1.000000e+000
      outer loop
         vertex -7.608452e+000 -2.472136e+000 7.000000e+000
         vertex -6.108002e+000 -2.223131e+000 7.000000e+000
         vertex -6.500000e+000 7.960204e-016 7.000000e+000
      endloop
   endfacet
   facet normal 0.000000e+000 -0.000000e+000 1.000000e+000
      outer loop
         vertex 4.702282e+000 6.472136e+000 7.000000e+000
         vertex 4.979289e+000 4.178120e+000 7.000000e+000
         vertex 6.472136e+000 4.702282e+000 7.000000e+000
      endloop
   endfacet
   facet normal 0.000000e+000 0.000000e+000 1.000000e+000
      outer loop
         vertex -6.108002e+000 2.223131e+000 7.000000e+000
         vertex -6.472136e+000 4.702282e+000 7.000000e+000
         vertex -7.608452e+000 2.472136e+000 7.000000e+000
      endloop
   endfacet
   facet normal -0.000000e+000 0.000000e+000 1.000000e+000
      outer loop
         vertex 4.979289e+000 -4.178120e+000 7.000000e+000
         vertex 3.250000e+000 -5.629165e+000 7.000000e+000
         vertex 4.702282e+000 -6.472136e+000 7.000000e+000
      endloop
   endfacet
   facet normal 0.000000e+000 0.000000e+000 1.000000e+000
      outer loop
         vertex -1.128713e+000 6.401250e+000 7.000000e+000
         vertex -2.472136e+000 7.608452e+000 7.000000e+000
         vertex -3.250000e+000 5.629165e+000 7.000000e+000
      endloop
   endfacet
   facet normal -9.848078e-001 -1.736481e-001 0.000000e+000
      outer loop
         vertex 6.108002e+000 2.223131e+000 2.000000e+000
         vertex 6.500000e+000 0.000000e+000 2.000000e+000
         vertex 6.500000e+000 0.000000e+000 7.000000e+000
      endloop
   endfacet
   facet normal -6.427875e-001 -7.660445e-001 0.000000e+000
      outer loop
         vertex 3.250000e+000 5.629165e+000 7.000000e+000
         vertex 3.250000e+000 5.629165e+000 2.000000e+000
         vertex 4.979289e+000 4.178120e+000 2.000000e+000
      endloop
   endfacet
   facet normal 0.000000e+000 -1.000000e+000 0.000000e+000
      outer loop
         vertex -1.128713e+000 6.401250e+000 7.000000e+000
         vertex -1.128713e+000 6.401250e+000 2.000000e+000
         vertex 1.128713e+000 6.401250e+000 2.000000e+000
      endloop
   endfacet
   facet normal 6.427875e-001 -7.660445e-001 0.000000e+000
      outer loop
         vertex -4.979289e+000 4.178120e+000 7.000000e+000
         vertex -4.979289e+000 4.178120e+000 2.000000e+000
         vertex -3.250000e+000 5.629165e+000 2.000000e+000
      endloop
   endfacet
   facet normal 9.848078e-001 -1.736481e-001 0.000000e+000
      outer loop
         vertex -6.500000e+000 7.960204e-016 7.000000e+000
         vertex -6.500000e+000 7.960204e-016 2.000000e+000
         vertex -6.108002e+000 2.223131e+000 2.000000e+000
      endloop
   endfacet
   facet normal 8.660254e-001 5.000000e-001 -0.000000e+000
      outer loop
         vertex -4.979289e+000 -4.178120e+000 7.000000e+000
         vertex -4.979289e+000 -4.178120e+000 2.000000e+000
         vertex -6.108002e+000 -2.223131e+000 2.000000e+000
      endloop
   endfacet
   facet normal 3.420201e-001 9.396926e-001 -0.000000e+000
      outer loop
         vertex -1.128713e+000 -6.401250e+000 7.000000e+000
         vertex -1.128713e+000 -6.401250e+000 2.000000e+000
         vertex -3.250000e+000 -5.629165e+000 2.000000e+000
      endloop
   endfacet
   facet normal -3.420201e-001 9.396926e-001 0.000000e+000
      outer loop
         vertex 3.250000e+000 -5.629165e+000 7.000000e+000
         vertex 3.250000e+000 -5.629165e+000 2.000000e+000
         vertex 1.128713e+000 -6.401250e+000 2.000000e+000
      endloop
   endfacet
   facet normal -8.660254e-001 5.000000e-001 0.000000e+000
      outer loop
         vertex 6.108002e+000 -2.223131e+000 7.000000e+000
         vertex 6.108002e+000 -2.223131e+000 2.000000e+000
         vertex 4.979289e+000 -4.178120e+000 2.000000e+000
      endloop
   endfacet
   facet normal -9.848078e-001 1.736481e-001 0.000000e+000
      outer loop
         vertex 6.108002e+000 -2.223131e+000 2.000000e+000
         vertex 6.500000e+000 0.000000e+000 7.000000e+000
         vertex 6.500000e+000 0.000000e+000 2.000000e+000
      endloop
   endfacet
   facet normal -6.427875e-001 7.660445e-001 0.000000e+000
      outer loop
         vertex 3.250000e+000 -5.629165e+000 2.000000e+000
         vertex 3.250000e+000 -5.629165e+000 7.000000e+000
         vertex 4.979289e+000 -4.178120e+000 7.000000e+000
      endloop
   endfacet
   facet normal -0.000000e+000 1.000000e+000 0.000000e+000
      outer loop
         vertex -1.128713e+000 -6.401250e+000 2.000000e+000
         vertex -1.128713e+000 -6.401250e+000 7.000000e+000
         vertex 1.128713e+000 -6.401250e+000 7.000000e+000
      endloop
   endfacet
   facet normal 6.427875e-001 7.660445e-001 0.000000e+000
      outer loop
         vertex -4.979289e+000 -4.178120e+000 2.000000e+000
         vertex -4.979289e+000 -4.178120e+000 7.000000e+000
         vertex -3.250000e+000 -5.629165e+000 7.000000e+000
      endloop
   endfacet
   facet normal 9.848078e-001 1.736481e-001 0.000000e+000
      outer loop
         vertex -6.500000e+000 7.960204e-016 2.000000e+000
         vertex -6.500000e+000 7.960204e-016 7.000000e+000
         vertex -6.108002e+000 -2.223131e+000 7.000000e+000
      endloop
   endfacet
   facet normal 8.660254e-001 -5.000000e-001 0.000000e+000
      outer loop
         vertex -4.979289e+000 4.178120e+000 2.000000e+000
         vertex -4.979289e+000 4.178120e+000 7.000000e+000
         vertex -6.108002e+000 2.223131e+000 7.000000e+000
      endloop
   endfacet
   facet normal 3.420201e-001 -9.396926e-001 0.000000e+000
      outer loop
         vertex -1.128713e+000 6.401250e+000 2.000000e+000
         vertex -1.128713e+000 6.401250e+000 7.000000e+000
         vertex -3.250000e+000 5.629165e+000 7.000000e+000
      endloop
   endfacet
   facet normal -3.420201e-001 -9.396926e-001 -0.000000e+000
      outer loop
         vertex 3.250000e+000 5.629165e+000 2.000000e+000
         vertex 3.250000e+000 5.629165e+000 7.000000e+000
         vertex 1.128713e+000 6.401250e+000 7.000000e+000
      endloop
   endfacet
   facet normal -8.660254e-001 -5.000000e-001 -0.000000e+000
      outer loop
         vertex 6.108002e+000 2.223131e+000 2.000000e+000
         vertex 6.108002e+000 2.223131e+000 7.000000e+000
         vertex 4.979289e+000 4.178120e+000 7.000000e+000
      endloop
   endfacet
   facet normal -9.848078e-001 -1.736481e-001 0.000000e+000
      outer loop
         vertex 6.108002e+000 2.223131e+000 7.000000e+000
         vertex 6.108002e+000 2.223131e+000 2.000000e+000
         vertex 6.500000e+000 0.000000e+000 7.000000e+000
      endloop
   endfacet
   facet normal 6.427875e-001 -7.660445e-001 0.000000e+000
      outer loop
         vertex -3.250000e+000 5.629165e+000 7.000000e+000
         vertex -4.979289e+000 4.178120e+000 7.000000e+000
         vertex -3.250000e+000 5.629165e+000 2.000000e+000
      endloop
   endfacet
   facet normal 3.420201e-001 9.396926e-001 0.000000e+000
      outer loop
         vertex -3.250000e+000 -5.629165e+000 7.000000e+000
         vertex -1.128713e+000 -6.401250e+000 7.000000e+000
         vertex -3.250000e+000 -5.629165e+000 2.000000e+000
      endloop
   endfacet
   facet normal -9.848078e-001 1.736481e-001 0.000000e+000
      outer loop
         vertex 6.500000e+000 0.000000e+000 7.000000e+000
         vertex 6.108002e+000 -2.223131e+000 2.000000e+000
         vertex 6.108002e+000 -2.223131e+000 7.000000e+000
      endloop
   endfacet
   facet normal 6.427875e-001 7.660445e-001 0.000000e+000
      outer loop
         vertex -3.250000e+000 -5.629165e+000 2.000000e+000
         vertex -4.979289e+000 -4.178120e+000 2.000000e+000
         vertex -3.250000e+000 -5.629165e+000 7.000000e+000
      endloop
   endfacet
   facet normal 3.420201e-001 -9.396926e-001 0.000000e+000
      outer loop
         vertex -3.250000e+000 5.629165e+000 2.000000e+000
         vertex -1.128713e+000 6.401250e+000 2.000000e+000
         vertex -3.250000e+000 5.629165e+000 7.000000e+000
      endloop
   endfacet
   facet normal -8.660254e-001 -5.000000e-001 0.000000e+000
      outer loop
         vertex 4.979289e+000 4.178120e+000 7.000000e+000
         vertex 4.979289e+000 4.178120e+000 2.000000e+000
         vertex 6.108002e+000 2.223131e+000 2.000000e+000
      endloop
   endfacet
   facet normal 8.660254e-001 -5.000000e-001 0.000000e+000
      outer loop
         vertex -6.108002e+000 2.223131e+000 7.000000e+000
         vertex -6.108002e+000 2.223131e+000 2.000000e+000
         vertex -4.979289e+000 4.178120e+000 2.000000e+000
      endloop
   endfacet
   facet normal 0.000000e+000 1.000000e+000 -0.000000e+000
      outer loop
         vertex 1.128713e+000 -6.401250e+000 7.000000e+000
         vertex 1.128713e+000 -6.401250e+000 2.000000e+000
         vertex -1.128713e+000 -6.401250e+000 2.000000e+000
      endloop
   endfacet
   facet normal -8.660254e-001 5.000000e-001 0.000000e+000
      outer loop
         vertex 4.979289e+000 -4.178120e+000 2.000000e+000
         vertex 4.979289e+000 -4.178120e+000 7.000000e+000
         vertex 6.108002e+000 -2.223131e+000 7.000000e+000
      endloop
   endfacet
   facet normal 8.660254e-001 5.000000e-001 0.000000e+000
      outer loop
         vertex -6.108002e+000 -2.223131e+000 2.000000e+000
         vertex -6.108002e+000 -2.223131e+000 7.000000e+000
         vertex -4.979289e+000 -4.178120e+000 7.000000e+000
      endloop
   endfacet
   facet normal -0.000000e+000 -1.000000e+000 -0.000000e+000
      outer loop
         vertex 1.128713e+000 6.401250e+000 2.000000e+000
         vertex 1.128713e+000 6.401250e+000 7.000000e+000
         vertex -1.128713e+000 6.401250e+000 7.000000e+000
      endloop
   endfacet
   facet normal -6.427875e-001 -7.660445e-001 0.000000e+000
      outer loop
         vertex 4.979289e+000 4.178120e+000 7.000000e+000
         vertex 3.250000e+000 5.629165e+000 7.000000e+000
         vertex 4.979289e+000 4.178120e+000 2.000000e+000
      endloop
   endfacet
   facet normal -6.427875e-001 7.660445e-001 0.000000e+000
      outer loop
         vertex 4.979289e+000 -4.178120e+000 2.000000e+000
         vertex 3.250000e+000 -5.629165e+000 2.000000e+000
         vertex 4.979289e+000 -4.178120e+000 7.000000e+000
      endloop
   endfacet
   facet normal 9.848078e-001 -1.736481e-001 0.000000e+000
      outer loop
         vertex -6.500000e+000 7.960204e-016 7.000000e+000
         vertex -6.108002e+000 2.223131e+000 2.000000e+000
         vertex -6.108002e+000 2.223131e+000 7.000000e+000
      endloop
   endfacet
   facet normal -3.420201e-001 -9.396926e-001 0.000000e+000
      outer loop
         vertex 1.128713e+000 6.401250e+000 7.000000e+000
         vertex 1.128713e+000 6.401250e+000 2.000000e+000
         vertex 3.250000e+000 5.629165e+000 2.000000e+000
      endloop
   endfacet
   facet normal -3.420201e-001 9.396926e-001 0.000000e+000
      outer loop
         vertex 1.128713e+000 -6.401250e+000 2.000000e+000
         vertex 1.128713e+000 -6.401250e+000 7.000000e+000
         vertex 3.250000e+000 -5.629165e+000 7.000000e+000
      endloop
   endfacet
   facet normal 9.848078e-001 1.736481e-001 0.000000e+000
      outer loop
         vertex -6.500000e+000 7.960204e-016 2.000000e+000
         vertex -6.108002e+000 -2.223131e+000 7.000000e+000
         vertex -6.108002e+000 -2.223131e+000 2.000000e+000
      endloop
   endfacet
   facet normal 9.876884e-001 1.564344e-001 -0.000000e+000
      outer loop
         vertex 8.000000e+000 0.000000e+000 7.000000e+000
         vertex 8.000000e+000 0.000000e+000 0.000000e+000
         vertex 7.608452e+000 2.472136e+000 0.000000e+000
      endloop
   endfacet
   facet normal 7.071068e-001 7.071068e-001 -0.000000e+000
      outer loop
         vertex 6.472136e+000 4.702282e+000 0.000000e+000
         vertex 4.702282e+000 6.472136e+000 0.000000e+000
         vertex 4.702282e+000 6.472136e+000 7.000000e+000
      endloop
   endfacet
   facet normal 1.564344e-001 9.876884e-001 -0.000000e+000
      outer loop
         vertex 2.472136e+000 7.608452e+000 0.000000e+000
         vertex 4.898587e-016 8.000000e+000 0.000000e+000
         vertex 4.898587e-016 8.000000e+000 7.000000e+000
      endloop
   endfacet
   facet normal -4.539906e-001 8.910065e-001 0.000000e+000
      outer loop
         vertex -2.472136e+000 7.608452e+000 0.000000e+000
         vertex -4.702282e+000 6.472136e+000 0.000000e+000
         vertex -4.702282e+000 6.472136e+000 7.000000e+000
      endloop
   endfacet
   facet normal -8.910065e-001 4.539906e-001 0.000000e+000
      outer loop
         vertex -6.472136e+000 4.702282e+000 0.000000e+000
         vertex -7.608452e+000 2.472136e+000 0.000000e+000
         vertex -7.608452e+000 2.472136e+000 7.000000e+000
      endloop
   endfacet
   facet normal -9.876884e-001 -1.564344e-001 0.000000e+000
      outer loop
         vertex -8.000000e+000 9.797175e-016 0.000000e+000
         vertex -7.608452e+000 -2.472136e+000 0.000000e+000
         vertex -7.608452e+000 -2.472136e+000 7.000000e+000
      endloop
   endfacet
   facet normal -7.071068e-001 -7.071068e-001 0.000000e+000
      outer loop
         vertex -6.472136e+000 -4.702282e+000 0.000000e+000
         vertex -4.702282e+000 -6.472136e+000 0.000000e+000
         vertex -4.702282e+000 -6.472136e+000 7.000000e+000
      endloop
   endfacet
   facet normal -1.564344e-001 -9.876884e-001 0.000000e+000
      outer loop
         vertex -2.472136e+000 -7.608452e+000 0.000000e+000
         vertex -1.469576e-015 -8.000000e+000 0.000000e+000
         vertex -1.469576e-015 -8.000000e+000 7.000000e+000
      endloop
   endfacet
   facet normal 4.539906e-001 -8.910065e-001 0.000000e+000
      outer loop
         vertex 2.472136e+000 -7.608452e+000 0.000000e+000
         vertex 4.702282e+000 -6.472136e+000 0.000000e+000
         vertex 4.702282e+000 -6.472136e+000 7.000000e+000
      endloop
   endfacet
   facet normal 8.910065e-001 -4.539906e-001 0.000000e+000
      outer loop
         vertex 6.472136e+000 -4.702282e+000 0.000000e+000
         vertex 7.608452e+000 -2.472136e+000 0.000000e+000
         vertex 7.608452e+000 -2.472136e+000 7.000000e+000
      endloop
   endfacet
   facet normal 9.876884e-001 -1.564344e-001 0.000000e+000
      outer loop
         vertex 8.000000e+000 0.000000e+000 0.000000e+000
         vertex 8.000000e+000 0.000000e+000 7.000000e+000
         vertex 7.608452e+000 -2.472136e+000 0.000000e+000
      endloop
   endfacet
   facet normal 7.071068e-001 -7.071068e-001 0.000000e+000
      outer loop
         vertex 6.472136e+000 -4.702282e+000 7.000000e+000
         vertex 4.702282e+000 -6.472136e+000 7.000000e+000
         vertex 4.702282e+000 -6.472136e+000 0.000000e+000
      endloop
   endfacet
   facet normal 1.564344e-001 -9.876884e-001 0.000000e+000
      outer loop
         vertex 2.472136e+000 -7.608452e+000 7.000000e+000
         vertex -1.469576e-015 -8.000000e+000 7.000000e+000
         vertex -1.469576e-015 -8.000000e+000 0.000000e+000
      endloop
   endfacet
   facet normal -4.539906e-001 -8.910065e-001 -0.000000e+000
      outer loop
         vertex -2.472136e+000 -7.608452e+000 7.000000e+000
         vertex -4.702282e+000 -6.472136e+000 7.000000e+000
         vertex -4.702282e+000 -6.472136e+000 0.000000e+000
      endloop
   endfacet
   facet normal -8.910065e-001 -4.539906e-001 -0.000000e+000
      outer loop
         vertex -6.472136e+000 -4.702282e+000 7.000000e+000
         vertex -7.608452e+000 -2.472136e+000 7.000000e+000
         vertex -7.608452e+000 -2.472136e+000 0.000000e+000
      endloop
   endfacet
   facet normal -9.876884e-001 1.564344e-001 0.000000e+000
      outer loop
         vertex -8.000000e+000 9.797175e-016 7.000000e+000
         vertex -7.608452e+000 2.472136e+000 7.000000e+000
         vertex -7.608452e+000 2.472136e+000 0.000000e+000
      endloop
   endfacet
   facet normal -7.071068e-001 7.071068e-001 0.000000e+000
      outer loop
         vertex -6.472136e+000 4.702282e+000 7.000000e+000
         vertex -4.702282e+000 6.472136e+000 7.000000e+000
         vertex -4.702282e+000 6.472136e+000 0.000000e+000
      endloop
   endfacet
   facet normal -1.564344e-001 9.876884e-001 0.000000e+000
      outer loop
         vertex -2.472136e+000 7.608452e+000 7.000000e+000
         vertex 4.898587e-016 8.000000e+000 7.000000e+000
         vertex 4.898587e-016 8.000000e+000 0.000000e+000
      endloop
   endfacet
   facet normal 4.539906e-001 8.910065e-001 0.000000e+000
      outer loop
         vertex 2.472136e+000 7.608452e+000 7.000000e+000
         vertex 4.702282e+000 6.472136e+000 7.000000e+000
         vertex 4.702282e+000 6.472136e+000 0.000000e+000
      endloop
   endfacet
   facet normal 8.910065e-001 4.539906e-001 0.000000e+000
      outer loop
         vertex 6.472136e+000 4.702282e+000 7.000000e+000
         vertex 7.608452e+000 2.472136e+000 7.000000e+000
         vertex 7.608452e+000 2.472136e+000 0.000000e+000
      endloop
   endfacet
   facet normal 9.876884e-001 1.564344e-001 -0.000000e+000
      outer loop
         vertex 8.000000e+000 0.000000e+000 7.000000e+000
         vertex 7.608452e+000 2.472136e+000 0.000000e+000
         vertex 7.608452e+000 2.472136e+000 7.000000e+000
      endloop
   endfacet
   facet normal -4.539906e-001 8.910065e-001 0.000000e+000
      outer loop
         vertex -2.472136e+000 7.608452e+000 0.000000e+000
         vertex -4.702282e+000 6.472136e+000 7.000000e+000
         vertex -2.472136e+000 7.608452e+000 7.000000e+000
      endloop
   endfacet
   facet normal -7.071068e-001 -7.071068e-001 0.000000e+000
      outer loop
         vertex -6.472136e+000 -4.702282e+000 0.000000e+000
         vertex -4.702282e+000 -6.472136e+000 7.000000e+000
         vertex -6.472136e+000 -4.702282e+000 7.000000e+000
      endloop
   endfacet
   facet normal 8.910065e-001 -4.539906e-001 0.000000e+000
      outer loop
         vertex 6.472136e+000 -4.702282e+000 0.000000e+000
         vertex 7.608452e+000 -2.472136e+000 7.000000e+000
         vertex 6.472136e+000 -4.702282e+000 7.000000e+000
      endloop
   endfacet
   facet normal 7.071068e-001 -7.071068e-001 0.000000e+000
      outer loop
         vertex 6.472136e+000 -4.702282e+000 7.000000e+000
         vertex 4.702282e+000 -6.472136e+000 0.000000e+000
         vertex 6.472136e+000 -4.702282e+000 0.000000e+000
      endloop
   endfacet
   facet normal -8.910065e-001 -4.539906e-001 0.000000e+000
      outer loop
         vertex -6.472136e+000 -4.702282e+000 7.000000e+000
         vertex -7.608452e+000 -2.472136e+000 0.000000e+000
         vertex -6.472136e+000 -4.702282e+000 0.000000e+000
      endloop
   endfacet
   facet normal -1.564344e-001 9.876884e-001 0.000000e+000
      outer loop
         vertex -2.472136e+000 7.608452e+000 7.000000e+000
         vertex 4.898587e-016 8.000000e+000 0.000000e+000
         vertex -2.472136e+000 7.608452e+000 0.000000e+000
      endloop
   endfacet
   facet normal 8.910065e-001 4.539906e-001 -0.000000e+000
      outer loop
         vertex 7.608452e+000 2.472136e+000 0.000000e+000
         vertex 6.472136e+000 4.702282e+000 0.000000e+000
         vertex 6.472136e+000 4.702282e+000 7.000000e+000
      endloop
   endfacet
   facet normal -7.071068e-001 7.071068e-001 0.000000e+000
      outer loop
         vertex -4.702282e+000 6.472136e+000 0.000000e+000
         vertex -6.472136e+000 4.702282e+000 0.000000e+000
         vertex -6.472136e+000 4.702282e+000 7.000000e+000
      endloop
   endfacet
   facet normal -4.539906e-001 -8.910065e-001 0.000000e+000
      outer loop
         vertex -4.702282e+000 -6.472136e+000 0.000000e+000
         vertex -2.472136e+000 -7.608452e+000 0.000000e+000
         vertex -2.472136e+000 -7.608452e+000 7.000000e+000
      endloop
   endfacet
   facet normal 9.876884e-001 -1.564344e-001 0.000000e+000
      outer loop
         vertex 8.000000e+000 0.000000e+000 7.000000e+000
         vertex 7.608452e+000 -2.472136e+000 7.000000e+000
         vertex 7.608452e+000 -2.472136e+000 0.000000e+000
      endloop
   endfacet
   facet normal -1.564344e-001 -9.876884e-001 -0.000000e+000
      outer loop
         vertex -1.469576e-015 -8.000000e+000 7.000000e+000
         vertex -2.472136e+000 -7.608452e+000 7.000000e+000
         vertex -2.472136e+000 -7.608452e+000 0.000000e+000
      endloop
   endfacet
   facet normal -8.910065e-001 4.539906e-001 0.000000e+000
      outer loop
         vertex -7.608452e+000 2.472136e+000 7.000000e+000
         vertex -6.472136e+000 4.702282e+000 7.000000e+000
         vertex -6.472136e+000 4.702282e+000 0.000000e+000
      endloop
   endfacet
   facet normal 7.071068e-001 7.071068e-001 0.000000e+000
      outer loop
         vertex 4.702282e+000 6.472136e+000 7.000000e+000
         vertex 6.472136e+000 4.702282e+000 7.000000e+000
         vertex 6.472136e+000 4.702282e+000 0.000000e+000
      endloop
   endfacet
   facet normal -9.876884e-001 -1.564344e-001 0.000000e+000
      outer loop
         vertex -8.000000e+000 9.797175e-016 0.000000e+000
         vertex -7.608452e+000 -2.472136e+000 7.000000e+000
         vertex -8.000000e+000 9.797175e-016 7.000000e+000
      endloop
   endfacet
   facet normal -9.876884e-001 1.564344e-001 0.000000e+000
      outer loop
         vertex -8.000000e+000 9.797175e-016 7.000000e+000
         vertex -7.608452e+000 2.472136e+000 0.000000e+000
         vertex -8.000000e+000 9.797175e-016 0.000000e+000
      endloop
   endfacet
   facet normal 4.539906e-001 8.910065e-001 -0.000000e+000
      outer loop
         vertex 4.702282e+000 6.472136e+000 0.000000e+000
         vertex 2.472136e+000 7.608452e+000 0.000000e+000
         vertex 2.472136e+000 7.608452e+000 7.000000e+000
      endloop
   endfacet
   facet normal 4.539906e-001 -8.910065e-001 0.000000e+000
      outer loop
         vertex 4.702282e+000 -6.472136e+000 7.000000e+000
         vertex 2.472136e+000 -7.608452e+000 7.000000e+000
         vertex 2.472136e+000 -7.608452e+000 0.000000e+000
      endloop
   endfacet
   facet normal 1.564344e-001 9.876884e-001 0.000000e+000
      outer loop
         vertex 2.472136e+000 7.608452e+000 0.000000e+000
         vertex 4.898587e-016 8.000000e+000 7.000000e+000
         vertex 2.472136e+000 7.608452e+000 7.000000e+000
      endloop
   endfacet
   facet normal 1.564344e-001 -9.876884e-001 0.000000e+000
      outer loop
         vertex -1.469576e-015 -8.000000e+000 0.000000e+000
         vertex 2.472136e+000 -7.608452e+000 0.000000e+000
         vertex 2.472136e+000 -7.608452e+000 7.000000e+000
      endloop
   endfacet
   facet normal 0.000000e+000 0.000000e+000 1.000000e+000
      outer loop
         vertex 6.108002e+000 -2.223131e+000 2.000000e+000
         vertex 6.500000e+000 0.000000e+000 2.000000e+000
         vertex 4.979289e+000 4.178120e+000 2.000000e+000
      endloop
   endfacet
   facet normal 0.000000e+000 0.000000e+000 1.000000e+000
      outer loop
         vertex 6.108002e+000 2.223131e+000 2.000000e+000
         vertex 4.979289e+000 4.178120e+000 2.000000e+000
         vertex 6.500000e+000 0.000000e+000 2.000000e+000
      endloop
   endfacet
   facet normal -0.000000e+000 0.000000e+000 1.000000e+000
      outer loop
         vertex 1.128713e+000 6.401250e+000 2.000000e+000
         vertex -1.128713e+000 6.401250e+000 2.000000e+000
         vertex 3.250000e+000 5.629165e+000 2.000000e+000
      endloop
   endfacet
   facet normal 0.000000e+000 0.000000e+000 1.000000e+000
      outer loop
         vertex -4.979289e+000 4.178120e+000 2.000000e+000
         vertex -6.108002e+000 2.223131e+000 2.000000e+000
         vertex -3.250000e+000 5.629165e+000 2.000000e+000
      endloop
   endfacet
   facet normal 0.000000e+000 0.000000e+000 1.000000e+000
      outer loop
         vertex -6.108002e+000 -2.223131e+000 2.000000e+000
         vertex -4.979289e+000 -4.178120e+000 2.000000e+000
         vertex -6.500000e+000 7.960204e-016 2.000000e+000
      endloop
   endfacet
   facet normal 0.000000e+000 0.000000e+000 1.000000e+000
      outer loop
         vertex -1.128713e+000 -6.401250e+000 2.000000e+000
         vertex 1.128713e+000 -6.401250e+000 2.000000e+000
         vertex -3.250000e+000 -5.629165e+000 2.000000e+000
      endloop
   endfacet
   facet normal 0.000000e+000 0.000000e+000 1.000000e+000
      outer loop
         vertex 4.979289e+000 -4.178120e+000 2.000000e+000
         vertex 6.108002e+000 -2.223131e+000 2.000000e+000
         vertex 1.128713e+000 -6.401250e+000 2.000000e+000
      endloop
   endfacet
   facet normal 0.000000e+000 0.000000e+000 1.000000e+000
      outer loop
         vertex 3.250000e+000 5.629165e+000 2.000000e+000
         vertex -1.128713e+000 6.401250e+000 2.000000e+000
         vertex 4.979289e+000 4.178120e+000 2.000000e+000
      endloop
   endfacet
   facet normal 0.000000e+000 -0.000000e+000 1.000000e+000
      outer loop
         vertex -3.250000e+000 -5.629165e+000 2.000000e+000
         vertex 1.128713e+000 -6.401250e+000 2.000000e+000
         vertex 4.979289e+000 4.178120e+000 2.000000e+000
      endloop
   endfacet
   facet normal 0.000000e+000 0.000000e+000 1.000000e+000
      outer loop
         vertex 1.128713e+000 -6.401250e+000 2.000000e+000
         vertex 6.108002e+000 -2.223131e+000 2.000000e+000
         vertex 4.979289e+000 4.178120e+000 2.000000e+000
      endloop
   endfacet
   facet normal -0.000000e+000 0.000000e+000 1.000000e+000
      outer loop
         vertex -1.128713e+000 6.401250e+000 2.000000e+000
         vertex -3.250000e+000 5.629165e+000 2.000000e+000
         vertex 4.979289e+000 4.178120e+000 2.000000e+000
      endloop
   endfacet
   facet normal 0.000000e+000 -0.000000e+000 1.000000e+000
      outer loop
         vertex -4.979289e+000 -4.178120e+000 2.000000e+000
         vertex -3.250000e+000 -5.629165e+000 2.000000e+000
         vertex -3.250000e+000 5.629165e+000 2.000000e+000
      endloop
   endfacet
   facet normal 0.000000e+000 0.000000e+000 1.000000e+000
      outer loop
         vertex 3.250000e+000 -5.629165e+000 2.000000e+000
         vertex 4.979289e+000 -4.178120e+000 2.000000e+000
         vertex 1.128713e+000 -6.401250e+000 2.000000e+000
      endloop
   endfacet
   facet normal 0.000000e+000 0.000000e+000 1.000000e+000
      outer loop
         vertex 4.979289e+000 4.178120e+000 2.000000e+000
         vertex -3.250000e+000 5.629165e+000 2.000000e+000
         vertex -3.250000e+000 -5.629165e+000 2.000000e+000
      endloop
   endfacet
   facet normal 0.000000e+000 0.000000e+000 1.000000e+000
      outer loop
         vertex -6.108002e+000 2.223131e+000 2.000000e+000
         vertex -6.500000e+000 7.960204e-016 2.000000e+000
         vertex -3.250000e+000 5.629165e+000 2.000000e+000
      endloop
   endfacet
   facet normal 0.000000e+000 0.000000e+000 1.000000e+000
      outer loop
         vertex -4.979289e+000 -4.178120e+000 2.000000e+000
         vertex -3.250000e+000 5.629165e+000 2.000000e+000
         vertex -6.500000e+000 7.960204e-016 2.000000e+000
      endloop
   endfacet
   facet normal 0.000000e+000 -0.000000e+000 -1.000000e+000
      outer loop
         vertex 2.472136e+000 -7.608452e+000 0.000000e+000
         vertex 7.608452e+000 2.472136e+000 0.000000e+000
         vertex 8.000000e+000 0.000000e+000 0.000000e+000
      endloop
   endfacet
   facet normal 0.000000e+000 0.000000e+000 -1.000000e+000
      outer loop
         vertex 7.608452e+000 2.472136e+000 0.000000e+000
         vertex 4.702282e+000 6.472136e+000 0.000000e+000
         vertex 6.472136e+000 4.702282e+000 0.000000e+000
      endloop
   endfacet
   facet normal 0.000000e+000 -0.000000e+000 -1.000000e+000
      outer loop
         vertex -4.702282e+000 6.472136e+000 0.000000e+000
         vertex -2.472136e+000 7.608452e+000 0.000000e+000
         vertex 4.898587e-016 8.000000e+000 0.000000e+000
      endloop
   endfacet
   facet normal 0.000000e+000 0.000000e+000 -1.000000e+000
      outer loop
         vertex -4.702282e+000 6.472136e+000 0.000000e+000
         vertex -7.608452e+000 2.472136e+000 0.000000e+000
         vertex -6.472136e+000 4.702282e+000 0.000000e+000
      endloop
   endfacet
   facet normal 0.000000e+000 0.000000e+000 -1.000000e+000
      outer loop
         vertex -7.608452e+000 2.472136e+000 0.000000e+000
         vertex -6.472136e+000 -4.702282e+000 0.000000e+000
         vertex -7.608452e+000 -2.472136e+000 0.000000e+000
      endloop
   endfacet
   facet normal 0.000000e+000 0.000000e+000 -1.000000e+000
      outer loop
         vertex -6.472136e+000 -4.702282e+000 0.000000e+000
         vertex -2.472136e+000 -7.608452e+000 0.000000e+000
         vertex -4.702282e+000 -6.472136e+000 0.000000e+000
      endloop
   endfacet
   facet normal -0.000000e+000 0.000000e+000 -1.000000e+000
      outer loop
         vertex 7.608452e+000 -2.472136e+000 0.000000e+000
         vertex 6.472136e+000 -4.702282e+000 0.000000e+000
         vertex 4.702282e+000 -6.472136e+000 0.000000e+000
      endloop
   endfacet
   facet normal 0.000000e+000 0.000000e+000 -1.000000e+000
      outer loop
         vertex 4.702282e+000 -6.472136e+000 0.000000e+000
         vertex 2.472136e+000 -7.608452e+000 0.000000e+000
         vertex 8.000000e+000 0.000000e+000 0.000000e+000
      endloop
   endfacet
   facet normal 0.000000e+000 0.000000e+000 -1.000000e+000
      outer loop
         vertex 7.608452e+000 2.472136e+000 0.000000e+000
         vertex -4.702282e+000 6.472136e+000 0.000000e+000
         vertex 4.898587e-016 8.000000e+000 0.000000e+000
      endloop
   endfacet
   facet normal 0.000000e+000 -0.000000e+000 -1.000000e+000
      outer loop
         vertex -8.000000e+000 9.797175e-016 0.000000e+000
         vertex -7.608452e+000 2.472136e+000 0.000000e+000
         vertex -7.608452e+000 -2.472136e+000 0.000000e+000
      endloop
   endfacet
   facet normal 0.000000e+000 0.000000e+000 -1.000000e+000
      outer loop
         vertex 7.608452e+000 -2.472136e+000 0.000000e+000
         vertex 4.702282e+000 -6.472136e+000 0.000000e+000
         vertex 8.000000e+000 0.000000e+000 0.000000e+000
      endloop
   endfacet
   facet normal 0.000000e+000 0.000000e+000 -1.000000e+000
      outer loop
         vertex 7.608452e+000 2.472136e+000 0.000000e+000
         vertex 2.472136e+000 7.608452e+000 0.000000e+000
         vertex 4.702282e+000 6.472136e+000 0.000000e+000
      endloop
   endfacet
   facet normal 0.000000e+000 0.000000e+000 -1.000000e+000
      outer loop
         vertex -6.472136e+000 -4.702282e+000 0.000000e+000
         vertex -1.469576e-015 -8.000000e+000 0.000000e+000
         vertex -2.472136e+000 -7.608452e+000 0.000000e+000
      endloop
   endfacet
   facet normal 0.000000e+000 0.000000e+000 -1.000000e+000
      outer loop
         vertex -1.469576e-015 -8.000000e+000 0.000000e+000
         vertex 7.608452e+000 2.472136e+000 0.000000e+000
         vertex 2.472136e+000 -7.608452e+000 0.000000e+000
      endloop
   endfacet
   facet normal 0.000000e+000 0.000000e+000 -1.000000e+000
      outer loop
         vertex 2.472136e+000 7.608452e+000 0.000000e+000
         vertex 7.608452e+000 2.472136e+000 0.000000e+000
         vertex 4.898587e-016 8.000000e+000 0.000000e+000
      endloop
   endfacet
   facet normal 0.000000e+000 0.000000e+000 -1.000000e+000
      outer loop
         vertex -6.472136e+000 -4.702282e+000 0.000000e+000
         vertex 7.608452e+000 2.472136e+000 0.000000e+000
         vertex -1.469576e-015 -8.000000e+000 0.000000e+000
      endloop
   endfacet
   facet normal 0.000000e+000 0.000000e+000 -1.000000e+000
      outer loop
         vertex -6.472136e+000 -4.702282e+000 0.000000e+000
         vertex -7.608452e+000 2.472136e+000 0.000000e+000
         vertex -4.702282e+000 6.472136e+000 0.000000e+000
      endloop
   endfacet
   facet normal -0.000000e+000 0.000000e+000 -1.000000e+000
      outer loop
         vertex -4.702282e+000 6.472136e+000 0.000000e+000
         vertex 7.608452e+000 2.472136e+000 0.000000e+000
         vertex -6.472136e+000 -4.702282e+000 0.000000e+000
      endloop
   endfacet
endsolid
